<?xml version="1.0" standalone="no"?>
<svg width="64" height="64" viewBox="0 0 1024 768" version="1.1" xmlns="http://www.w3.org/2000/svg">
  <path d="M533 811q-111 0 -204.5 -55.5t-145.5 -149.5l-98 98v-277h278l-120 119q43 82 119.5 130.5t170.5 48.5q86 0 160 -43t117 -117t43 -160t-43 -159.5t-117 -117t-160 -43.5q-103 0 -185 59.5t-118 154.5h-89q35 -130 144 -214.5t248 -84.5q111 0 204.5 54.5t147.5 148    t54 202.5t-55 202.5t-148.5 148.5t-202.5 55zM469 597v-217l201 -120l34 56l-171 102v179h-64z" transform="matrix(1,0,0,-1,0,768)"/>
</svg>