<?xml version="1.0" encoding="utf-8"?>
<!-- Generator: Adobe Illustrator 16.0.0, SVG Export Plug-In . SVG Version: 6.00 Build 0)  -->
<!DOCTYPE svg PUBLIC "-//W3C//DTD SVG 1.1//EN" "http://www.w3.org/Graphics/SVG/1.1/DTD/svg11.dtd">
<svg version="1.1" id="图层_1" xmlns="http://www.w3.org/2000/svg" xmlns:xlink="http://www.w3.org/1999/xlink" x="0px" y="0px"
	 width="49.833px" height="49.83px" viewBox="0 0 49.833 49.83" enable-background="new 0 0 49.833 49.83" xml:space="preserve">
<path d="M41.912,36.567c2.536,0.879,3.958,2.755,5.339,5.314c0.793,1.47,1.393,3.05,1.951,4.621
	c0.364,1.025,0.631,2.237,0.631,3.327H24.308H0c0-2.165,1.277-5.927,2.5-7.647c2.167-3.059,2.878-4.127,6.24-5.773
	c1.501-0.735,4.241-1.117,5.844-1.577c1.089-0.313,3.794-1.911,4.26-2.531c0.466-0.62,0.157-2.748,0.157-2.748
	s-1.21-1.127-1.676-2.372c-0.466-1.244-1.121-3.358-1.121-3.358s-1.088,0-1.399-1.865c-0.311-2.022-0.934-2.643-0.934-4.198
	c0-1.401,0.777-1.556,0.777-1.556s-0.623-2.021-0.777-6.529c-0.153-5.286,3.57-9.484,11.191-9.484
	c7.614,0,10.908,4.198,10.752,9.485c-0.157,4.509-0.778,6.529-0.778,6.529s0.778,0.157,0.778,1.556c0,1.555-0.466,2.332-0.933,4.354
	c-0.312,1.867-1.399,1.867-1.399,1.867s-0.396,1.833-0.86,3.071c-0.468,1.246-1.838,2.539-1.838,2.539s-0.311,2.128,0.153,2.748
	c0.466,0.624,2.616,1.526,3.676,1.923C37.472,35.333,39.733,35.813,41.912,36.567z"/>
</svg>
