<?xml version="1.0" encoding="utf-8"?>
<!-- Generator: Adobe Illustrator 16.0.0, SVG Export Plug-In . SVG Version: 6.00 Build 0)  -->
<!DOCTYPE svg PUBLIC "-//W3C//DTD SVG 1.1//EN" "http://www.w3.org/Graphics/SVG/1.1/DTD/svg11.dtd">
<svg version="1.1" id="图层_1" xmlns="http://www.w3.org/2000/svg" xmlns:xlink="http://www.w3.org/1999/xlink" x="0px" y="0px"
	 width="200px" height="200px" viewBox="0 0 200 200" enable-background="new 0 0 200 200" xml:space="preserve">
<path d="M100,0C44.771,0,0,44.771,0,100c0,55.229,44.771,100,100,100c55.229,0,100-44.771,100-100C200,44.771,155.229,0,100,0z
	 M132.654,127.289c-1.065,8.288-4.838,15.076-11.215,20.177c-6.097,4.877-13.063,7.351-20.713,7.351
	c-0.327,0-0.653-0.004-0.983-0.015c-8.026-0.209-15.099-2.782-21.021-7.653c-5.947-4.873-9.814-12.041-11.492-21.305l-0.271-1.496
	l13.765-2.295l0.385,1.256c1.534,5.004,4.063,9.193,7.517,12.449c3.388,3.202,7.512,4.666,12.625,4.469
	c5.056-0.187,8.968-2.187,11.967-6.115c3.042-3.995,4.339-8.446,3.962-13.604c-0.38-5.091-2.287-8.929-5.832-11.729
	c-3.637-2.866-9.648-4.916-17.869-6.09l-1.288-0.186V91.915l1.358-0.129c8.141-0.772,14.096-2.892,17.697-6.3
	c3.544-3.359,5.086-7.654,4.715-13.129c-0.375-5.386-2.711-9.174-7.143-11.58c-4.471-2.42-9.25-2.694-14.302-0.826
	c-5.023,1.866-9.13,7.299-12.206,16.149l-0.416,1.195L67.946,74.97l0.555-1.665c2.489-7.469,5.971-13.792,10.349-18.795
	c4.494-5.136,10.661-8.175,18.329-9.034c7.571-0.837,14.297,0.133,20.012,2.881c5.806,2.801,9.949,7.166,12.316,12.973
	c2.342,5.764,2.672,12.124,0.98,18.906c-1.551,6.196-5.732,11.73-12.442,16.479c4.79,2.513,8.601,6,11.347,10.395
	C132.607,112.255,133.706,119.045,132.654,127.289z"/>
</svg>
