<?xml version="1.0" encoding="utf-8"?>
<!-- Generator: Adobe Illustrator 16.0.0, SVG Export Plug-In . SVG Version: 6.00 Build 0)  -->
<!DOCTYPE svg PUBLIC "-//W3C//DTD SVG 1.1//EN" "http://www.w3.org/Graphics/SVG/1.1/DTD/svg11.dtd">
<svg version="1.1" id="图层_1" xmlns="http://www.w3.org/2000/svg" xmlns:xlink="http://www.w3.org/1999/xlink" x="0px" y="0px"
	 width="200px" height="200px" viewBox="0 0 200 200" enable-background="new 0 0 200 200" xml:space="preserve">
<path d="M100,0C44.771,0,0,44.771,0,100c0,55.229,44.771,100,100,100c55.229,0,100-44.771,100-100C200,44.771,155.229,0,100,0z
	 M133.745,154.329H69.198v-3.938c0.428-6.558,3.459-12.431,9.014-17.556c5.191-4.798,11.903-12.427,19.946-22.675
	c8.016-10.224,13.279-18.209,15.645-23.735c2.314-5.399,3.202-10.046,2.639-13.813c-0.558-3.705-2.275-6.687-5.254-9.114
	c-2.959-2.397-6.291-3.386-10.187-3.021c-3.967,0.38-7.816,1.925-11.438,4.589c-3.598,2.65-6.395,6.719-8.313,12.093l-0.418,1.172
	l-14.579-2.302l0.589-1.694c3.325-9.564,7.68-16.653,12.945-21.07c5.3-4.454,11.643-6.93,18.852-7.356
	c4.058-0.402,7.972-0.301,11.333,0.328c3.41,0.64,6.975,2.147,10.592,4.479c3.666,2.379,6.713,5.959,9.06,10.644
	c2.353,4.722,3.224,10.429,2.59,16.965c-0.629,6.507-3.887,14.32-9.682,23.221c-5.449,8.366-15.831,21.416-30.877,38.813h42.089
	L133.745,154.329L133.745,154.329z"/>
</svg>
