<?xml version="1.0" encoding="utf-8"?>
<!-- Generator: Adobe Illustrator 16.0.0, SVG Export Plug-In . SVG Version: 6.00 Build 0)  -->
<!DOCTYPE svg PUBLIC "-//W3C//DTD SVG 1.1//EN" "http://www.w3.org/Graphics/SVG/1.1/DTD/svg11.dtd">
<svg version="1.1" id="图层_1" xmlns="http://www.w3.org/2000/svg" xmlns:xlink="http://www.w3.org/1999/xlink" x="0px" y="0px"
	 width="200px" height="200px" viewBox="0 0 200 200" enable-background="new 0 0 200 200" xml:space="preserve">
<g>
	<path d="M66.689,107.482c-7.408-0.562-14.952,1.764-19.264,3.854c-4.171,2.439-5.884,4.034-7.705,7.705
		c-2.321,4.674-1.495,10.545,3.852,15.412c5.874,5.352,11.326,7.761,19.264,7.707c4.793-0.031,11.002-2.122,15.412-3.854
		c8.906-3.502,16.728-8.517,23.117-15.412c1.154-1.248,2.667-2.508,3.853-3.854c-3.019-1.136-8.386-3.117-11.559-4.292
		C84.713,111.451,76.627,108.498,66.689,107.482z"/>
	<path d="M100,0C44.771,0,0,44.771,0,100c0,55.229,44.771,100,100,100c55.229,0,100-44.771,100-100C200,44.771,155.229,0,100,0z
		 M165.9,148.777c-12.963-5.733-25.914-11.495-38.857-17.26c-2.865-1.279-5.703-2.629-8.527-3.984
		c-0.621-0.303-0.961-0.273-1.443,0.236c-7.793,8.072-16.803,14.568-27.405,18.933c-6.434,2.651-13.154,4.335-20.146,4.85
		c-8.112,0.593-15.843-0.768-23.011-4.603c-4.854-2.594-8.484-6.368-11.412-10.818c-2.642-4.014-3.473-8.464-2.954-13.068
		c0.666-5.937,3.484-10.924,8.18-14.922c5.237-4.467,11.438-6.89,18.301-7.96c4.259-0.665,8.567-0.898,12.831-0.5
		c4.436,0.407,8.86,1.128,13.229,1.984c8.763,1.717,17.309,4.229,25.733,7.1c0.566,0.192,0.771,0.049,0.995-0.426
		c3.446-7.165,6.071-14.603,8.286-22.187c0.011-0.045,0.929-1.648,0.929-1.788c-20.6,0-44.864,0-65.497,0c0-1.977,0-1.901,0-3.853
		c10.068,0,24.569,0,34.676,0c0-3.725,0-7.806,0-11.558c-12.143,0-26.003,0.007-38.213,0.007c0-2.073-0.315-5.662-0.315-7.713
		c12.164,0,26.263,0,38.529,0c0-0.081,0-0.105,0-0.1c0-4.388,0-7.042,0-11.459c0-2.242,1.471-3.849,3.854-3.853
		c5.341-0.007,10.064,0,15.41,0c0,5.645,0,9.729,0,15.412c13.111,0,25.424,0,38.531,0c0,2.077-0.449,5.606-0.449,7.654
		c-13.035,0-24.981,0.052-38.079,0.052c0,3.741,0,7.809,0,11.558c11.219,0,23.362,0,34.676,0
		c-3.426,12.125-10.233,23.176-16.722,34.125c0.717,0.254,1.361,0.49,2.014,0.711c13.891,4.67,27.95,8.788,42.178,12.402
		c2.172,0.554,4.35,1.074,6.529,1.598c0.24,0.063,13,3.139,13.251,3.153c-0.75,7.334-5.162,15.034-11,22.25
		C175.799,152.951,170.076,150.624,165.9,148.777z"/>
</g>
</svg>
